PathFileType	4	(X/Y/Z)	C:/Users/beibeiliu/ov580/test_trc/User2\sequence.37_training_dense_left.trc
DataRate	CameraRate	NumFrames	NumMarkers	Units	OrigDataRate	OrigDataStartFrame	OrigNumFrames
120	120	7	19	mm	120	30	118
Frame#	Time	ThumbCMC			ThumbMCP			ThumbIP			ThumbTip			IndexMCP			IndexPIP			IndexTip			MiddleMCP			MiddlePIP			MiddleTip			RingMCP			RingPIP			RingTip			PinkyMCP			PinkyPIP			PinkyTip			BackHand1			BackHand2			BackHand3	
		X0	Y0	Z0	X1	Y1	Z1	X2	Y2	Z2	X3	Y3	Z3	X4	Y4	Z4	X5	Y5	Z5	X6	Y6	Z6	X7	Y7	Z7	X8	Y8	Z8	X9	Y9	Z9	X10	Y10	Z10	X11	Y11	Z11	X12	Y12	Z12	X13	Y13	Z13	X14	Y14	Z14	X15	Y15	Z15	X16	Y16	Z16	X17	Y17	Z17	X18	Y18	Z18	
29	0.241667	-188.93	34.4188	-23.636	-162.866	53.0903	-43.1869	-140.246	72.2633	-64.4436	-119.042	67.3435	-85.7685	-195.889	22.5056	-106.646	-182.546	37.0989	-131.531	-159.024	51.7917	-149.163	-180.159	0.54313	-116.697	-153.797	18.291	-136.241	-121.447	39.1449	-127.505	-169.748	-18.7364	-112.365	-150.636	-7.43919	-135.09	-124.754	11.1589	-139.33	-159.825	-37.8495	-91.6009	-148.156	-42.0387	-122.11	-133.619	-32.0817	-143.747	-188.335	-30.0703	-52.2683	-192.666	-36.3741	-22.3931	-210.607	-5.92411	-37.3769	
30	0.25	-188.902	31.9357	-28.7257	-163.883	57.493	-45.3257	-140.525	67.6409	-64.3022	-120.206	65.5971	-86.8464	-198.541	27.2603	-110.832	-184.013	34.6591	-131.402	-158.88	49.043	-151.503	-181.947	-1.31022	-114.75	-155.669	14.8406	-139.287	-125.438	33.1798	-135.378	-170.855	-20.5169	-114.696	-149.593	-9.95665	-137.149	-128.694	15.3014	-141.428	-159.095	-40.6373	-93.1822	-148.387	-43.898	-119.439	-132.987	-34.5242	-146.824	-186.982	-35.1204	-56.6433	-191.691	-38.9211	-22.1388	-210.107	-8.21568	-39.5382	
31	0.258333	-190.159	33.2673	-26.0683	-163.744	58.6888	-44.0516	-142.237	67.728	-65.4265	-121.394	69.7818	-87.764	-196.722	25.1957	-110.782	-184.652	38.9939	-131.175	-161.739	51.9998	-149.233	-181.53	3.18117	-118.383	-155.405	19.3264	-137.51	-124.905	39.9672	-133.589	-169.074	-21.0344	-111.436	-153.701	-9.42447	-134.513	-128.179	14.7962	-141.321	-157.847	-40.7376	-89.2592	-147.546	-45.2543	-120.887	-136.17	-37.098	-141.984	-187.97	-33.2322	-55.0458	-192.701	-36.1472	-20.874	-211.316	-2.96161	-39.7206	
32	0.266667	-190.364	33.4178	-26.2286	-165.522	55.4383	-43.3716	-142.187	68.8775	-67.1859	-123.638	62.8691	-88.3775	-198.837	26.9115	-104.958	-181.701	38.6893	-130.352	-159.2	50.0316	-147.42	-179.646	3.08139	-113.523	-152.895	20.5423	-133.628	-123.264	41.5632	-122.292	-171.353	-17.6912	-110.933	-152.544	-8.76872	-133.613	-127.864	14.7624	-138.016	-157.371	-41.0525	-89.8733	-150.585	-40.8712	-119.887	-135.711	-34.116	-144.314	-187.659	-33.3729	-55.4361	-193.488	-36.031	-20.5056	-208	-7.7105	-38.0621	
33	0.275	-192.158	35.471	-25.3358	-165.418	56.2053	-45.6736	-140.874	66.4047	-72.6842	-123.897	61.0781	-88.6826	-195.562	23.436	-106.725	-180.903	35.6423	-131.266	-158.62	49.3853	-147.753	-179.825	6.13653	-116.006	-153.196	21.4193	-133.102	-124.002	40.0922	-122.243	-170.868	-16.8259	-113.339	-152.738	-7.87568	-133.891	-126.17	16.0529	-138.493	-158.248	-42.3724	-93.9241	-149.52	-40.2517	-121.016	-135.568	-37.4262	-143.42	-189.797	-30.6891	-55.964	-194.658	-36.9027	-25.6065	-210.742	-8.05706	-40.364	
34	0.283333	-190.798	34.1301	-25.7992	-163.455	57.7793	-43.6085	-140.316	65.7657	-68.1772	-121.974	58.946	-89.2826	-198.515	25.4876	-106.133	-180.803	37.8213	-134.146	-163.05	47.1338	-148.67	-184.325	5.49265	-118.602	-156.775	20.4814	-138.329	-125.414	40.5926	-130.09	-172.624	-20.0202	-112.787	-156.454	-5.60268	-137.999	-129.22	15.1788	-143.258	-157.858	-40.069	-90.0139	-148.626	-40.6807	-123.252	-135.419	-32.1681	-145.534	-189.943	-30.2372	-56.0514	-194.074	-37.5227	-21.8749	-209.659	-8.02007	-40.6022	
35	0.291667	-188.362	37.4562	-24.5197	-160.214	57.7021	-46.9473	-136.895	64.6833	-68.2184	-117.35	58.2255	-88.278	-200.906	28.8568	-108.124	-186.09	44.2318	-135.032	-167.436	51.627	-150.289	-186.794	2.25702	-120.527	-166.387	20.1789	-144.194	-136.037	39.0416	-148.149	-173.415	-19.7307	-114.248	-157.277	-6.72959	-140.751	-134.398	13.4328	-147.177	-158.296	-40.5326	-97.4879	-145.793	-38.7549	-125.837	-130.11	-31.4859	-143.489	-189.123	-31.3486	-59.2231	-193.507	-37.7846	-24.9843	-207.811	-4.9939	-38.9295	
